<svg id="Layer_1" fill="currentColor" data-name="Layer 1" xmlns="http://www.w3.org/2000/svg" viewBox="0 0 217.69 43.54"><defs><style>.cls-1{fill-rule:evenodd;}</style></defs><path class="cls-1" d="M22,6.91,10.36,17.48A2,2,0,0,0,9.7,19V35a2,2,0,0,0,2,2H35.26a2,2,0,0,0,2-2V19a2,2,0,0,0-.68-1.51L24.73,6.89a2.07,2.07,0,0,0-1.36-.51A2,2,0,0,0,22,6.91Zm1.36,3.56,10.43,9.29V33.6H13.16V19.75Z"/><path class="cls-1" d="M23.4,19.12l-4.72,4.27v6.38H28.2V23.4Zm116.82-.76v3.8h7.57v14.3h4.15V22.16h7.38v-3.8Zm63.71,0V31.21L192.57,19.48a3.79,3.79,0,0,0-3.49-1.29,2.33,2.33,0,0,0-2,2.47v15.8h4.06V23.6l11.18,11.55a3.81,3.81,0,0,0,3.41,1.52A2.45,2.45,0,0,0,208,33.86V18.36Zm-42.62,9c0,7.85,3.95,9.38,11.07,9.38s11.06-1.53,11.06-9.38S179.49,18,172.38,18,161.31,19.54,161.31,27.39Zm17.75,0c0,5.23-2.29,5.47-6.68,5.47s-6.69-.24-6.69-5.47,2.29-5.48,6.69-5.48S179.06,22.15,179.06,27.39Zm-71,9.07h4.12V18.35H108.1Zm-9-6.88a5.1,5.1,0,0,0,4-5.29c0-3.66-2.42-5.94-6.3-5.94h-13V36.46H88V30h6.58l4.56,6.46h4.76ZM88,22.11h8.32c2.45,0,2.74,1.11,2.74,2.16s-.32,2.18-2.73,2.18H88Zm41.15,3h-3.63c-3.12,0-3.76-.59-3.76-1.7,0-1.36,2.09-1.89,5-1.89a17.62,17.62,0,0,1,7.87,1.77l2.18-3.07a18.24,18.24,0,0,0-10-2.54c-5.9,0-9.43,2.21-9.43,5.93,0,4,3.35,5.42,7.66,5.38h4c3.94,0,4.47.45,4.47,1.95s-2.18,2.41-5.69,2.41a16,16,0,0,1-9-2.47L116.55,34c3,2.35,6.6,3.16,11.23,3.16,6.45,0,10.15-2.34,10.15-6.43C137.93,27,135,25.08,129.12,25.08ZM68.64,17.82a2.42,2.42,0,0,0-2.06,1L55.84,36.47h4.83l2-3.31h12l2,3.31h4.83L70.71,18.85A2.42,2.42,0,0,0,68.64,17.82Zm0,5.23c.14.24,2.08,3.52,4,6.77h-8l4-6.77Z"/></svg>