<svg id="Layer_1" fill="currentColor" data-name="Layer 1" xmlns="http://www.w3.org/2000/svg" viewBox="0 0 217.69 43.54"><path d="M171.36,25.55h0v1.81h.34V26.6H172l.5.76h.38l-.54-.79a.48.48,0,0,0,.47-.5c0-.35-.22-.52-.69-.52Zm.67.28c.26,0,.38.07.38.23s-.18.26-.43.26h-.31v-.49Zm0-1a1.87,1.87,0,0,1,.87.22,1.71,1.71,0,0,1,.64.61,1.51,1.51,0,0,1,.24.82,1.59,1.59,0,0,1-.23.82,1.81,1.81,0,0,1-.65.61,1.84,1.84,0,0,1-.87.22,1.88,1.88,0,0,1-.88-.22,1.63,1.63,0,0,1-.64-.61,1.52,1.52,0,0,1,0-1.64,1.71,1.71,0,0,1,.64-.61A1.91,1.91,0,0,1,172,24.82Zm0,.28a1.46,1.46,0,0,0-1,.4,1.33,1.33,0,0,0,0,1.94,1.54,1.54,0,0,0,2.07,0,1.31,1.31,0,0,0,0-1.94A1.45,1.45,0,0,0,172,25.1Zm30.59.32c2.54,2.83,5.27,6.88,6.24,9.64h-4.1a25.27,25.27,0,0,0-4.9-7Zm6.24-17.29v7L197.71,25.56c-.57-.57-1.15-1.14-1.75-1.69-6.29-5.82-12.76-9.24-14.48-7.65-1.34,1.24.62,5.1,4.28,9.31L184.23,27a35,35,0,0,1-6.09-9.07c-.87-2.1-1.45-4.72,0-6.08,1.29-1.21,3.91-1.09,7.35.36a43.36,43.36,0,0,1,11.19,7.41Zm-18,16.94a14.94,14.94,0,0,1,2,1.61,17,17,0,0,1,1.76,1.85l-6.94,6.53H180.2Zm-41.29,10a70.88,70.88,0,0,0,7.93.34c6.44,0,9.27-.87,9.27-3.31,0-2.15-3.12-2.67-6-3.07-2.4-.34-3.81-.33-3.81-1.25s2.48-.87,4.08-.87a27.63,27.63,0,0,1,4.08.34l1.36-2.09c-1.06-.11-3.94-.34-7.15-.34-5.78,0-9.31.78-9.31,2.94s3.09,2.6,6.09,3c2.43.35,3.73.33,3.73,1.22s-2.13,1.07-4.28,1.07a23.52,23.52,0,0,1-4.38-.44ZM8.84,30.23c0,3.62,3.12,5.07,10,5.07a48.23,48.23,0,0,0,8.07-.58V30.13H21.37v2.75a15.39,15.39,0,0,1-2,.13c-3.87,0-4.6-1.33-4.6-2.83s.88-2.89,5-2.89a31.11,31.11,0,0,1,5.67.45L27,25.39a66.43,66.43,0,0,0-8.13-.45C12,24.94,8.84,26.63,8.84,30.23Zm108.56-2.7H125l1.58-2.37h-14.8v9.9h5.66V32.19h6.15l1.58-2.37H117.4ZM38.06,30.28l3.45,4.78h6.1l-3.55-4.29A2.74,2.74,0,0,0,46.92,28c0-2.8-3.57-2.82-5.86-2.82H30.7v9.9h5.51V27.22h2.55c1.24,0,2.36.21,2.36,1.39S40.64,30.28,38.06,30.28Zm103.31-.17c0,2.19-1.17,3-3.85,3-2.39,0-3.83-.79-3.83-3s1.44-3,3.82-3S141.37,27.92,141.37,30.11Zm6.07-.06c0-3.19-3-5.18-9.88-5.18s-9.92,2-9.92,5.19c0,3.57,3,5.29,9.92,5.29s9.88-1.73,9.88-5.3m-51.5-2.64H98.5c2.53,0,4,.6,4,2.7s-1.43,2.7-4,2.7H96v-5.4Zm-5.55-2.25v9.9h8.68c6.32,0,9.26-1.06,9.26-5s-2.94-4.93-9.26-4.93Zm-8.91,9.9-7.91-5v5h-3.3v-9.9H75l7.91,5.07V25.16h3.29v9.9Zm-15.06-9.9V31a3.07,3.07,0,0,1-1.25,2.89c-1.34,1-3.94,1.48-6.92,1.48s-5.5-.44-6.84-1.48A3.08,3.08,0,0,1,50.14,31V25.16h5.59v5.46c0,1.89.88,2.48,2.57,2.48s2.56-.59,2.56-2.48V25.16Z"/></svg>