<svg id="Layer_1" fill="currentColor" data-name="Layer 1" xmlns="http://www.w3.org/2000/svg" viewBox="0 0 217.69 43.54"><path d="M188.28,28.69H86.4q-23.46,0-46.93,0A2,2,0,0,0,37.29,30c-.84,1.8-1.82,3.54-2.73,5.31s-.93,1.83,1.16,1.83h4.79v0l48.29,0h74.51c7.11,0,14.22,0,21.32,0A1.76,1.76,0,0,0,186.47,36c.91-1.9,1.92-3.75,2.89-5.62C190.23,28.72,190.22,28.69,188.28,28.69Z"/><path d="M34.49,25.58a20.13,20.13,0,0,0,8.16-1.44c4.21-1.77,7.47-4.48,8.81-9a4.91,4.91,0,0,0-2.94-6.37,14,14,0,0,0-6-1A37.49,37.49,0,0,0,31.26,9.56c-.64.19-1.3.38-1.93.62-.4.16-1,.35-.75.93s.71.25,1.09.16c.84-.19,1.67-.42,2.51-.62s1.11.06.86.88c-.1.32-.19.65-.31,1-2.75,7.2-5.51,14.39-8.67,21.42a4.82,4.82,0,0,1-1.6,2c-.31.22-.86.42-.58.93s.76.15,1.13,0a53,53,0,0,1,8.18-1.57,4.91,4.91,0,0,0,1.2-.3c.33-.12.63-.37.55-.76s-.52-.38-.84-.35c-.71.08-1.41.22-2.12.31-1.29.15-1.71-.31-1.36-1.53.18-.61.4-1.22.64-1.81,2.32-5.83,4.62-11.67,7.12-17.43,1.36-3.15,1.28-4,6-3.87a8.88,8.88,0,0,1,.9.05,3.86,3.86,0,0,1,3.67,4.2,10.39,10.39,0,0,1-3.64,7.26A11.67,11.67,0,0,1,34.53,24c-.66,0-1.53-.13-1.51.86S33.92,25.58,34.49,25.58Z"/><path d="M76.88,22.15c-.4.71-.73,1.5-1.62,1.79-.17.06-.37.16-.35.38s.27.34.49.34c1.65,0,3.3,0,4.95,0,.29,0,.78-.13.63-.46-.57-1.21.44-1.9.87-2.72,1.81-3.45,1.85-3.42,5.74-3.28.65,0,1.07.2,1.25.86.35,1.27.72,2.53,1.09,3.79.15.5.09.89-.46,1.09-.2.08-.48.15-.45.42s.37.32.62.33h5.75c.26,0,.56,0,.69-.28s-.17-.43-.37-.58a2.4,2.4,0,0,1-.84-1.3c-.33-1-.6-2.1-1-3.1s-.19-1.45.91-1.65a8.43,8.43,0,0,0,5.66-3.38c.85-1.21,1.67-2.54,1-4.06s-2.33-1.64-3.8-1.69c-2.1-.07-4.2,0-6.3,0v0c-2.26,0-4.51,0-6.76,0-.37,0-1.16,0-.92.43.49.93-.13,1.44-.46,2C81.09,14.79,79,18.47,76.88,22.15Zm8.88-7.68c.45-.77.88-1.56,1.3-2.36a1.16,1.16,0,0,1,1.17-.68c2.29,0,4.57,0,6.86,0,.64,0,1.33.08,1.64.75s-.16,1.22-.56,1.72a3.52,3.52,0,0,1-2.42,1.26,28.42,28.42,0,0,1-4.3.19c-1.23,0-2.17,0-3.11,0-.72,0-1-.19-.58-.91Z"/><path d="M100.29,22.27c-.37.7-.71,1.43-1.54,1.7-.2.07-.36.2-.31.41s.25.27.44.28c.34,0,.67,0,1,0H115c.55,0,1.11-.08,1.56.42s.69.12.89-.25q.76-1.51,1.5-3c.1-.2.23-.43,0-.62s-.42-.05-.6.07a1.91,1.91,0,0,1-1.14.43l-11.16,0c-.62,0-.84-.23-.53-.83.41-.76.83-1.52,1.18-2.31a1.33,1.33,0,0,1,1.4-.87c2.06,0,4.13,0,6.2,0a1.2,1.2,0,0,1,1,.33c.41.48.73.27,1-.16.51-1,1-1.93,1.49-2.91.1-.19.24-.43,0-.61s-.43,0-.61.13a2.72,2.72,0,0,1-1.82.43h-4.17c-2.7,0-2.68,0-1.35-2.4a1.83,1.83,0,0,1,1.85-1.13c3.23.06,6.46,0,9.69,0,.44,0,.92-.11,1.27.3.52.61.83.25,1.08-.24.5-1,1-1.95,1.45-2.93.1-.2.25-.43,0-.61s-.44,0-.61.12a2.64,2.64,0,0,1-2,.53H112.46c-1.69,0-3.38,0-5.07,0-.35,0-1.09-.08-.75.55s0,1.08-.28,1.53C104.35,14.57,102.31,18.42,100.29,22.27Z"/><path d="M56.07,24.34a21.72,21.72,0,0,0,8.83.35c4-.48,7.27-2.08,9.3-5.73,1.52-2.73,3.08-5.43,4.62-8.14a2.92,2.92,0,0,1,1.43-1.53c.19-.07.47-.16.37-.46s-.37-.21-.58-.21c-1.16,0-2.33,0-3.49,0-.71,0-1.85-.39-1.31,1.13,0,.13-.13.34-.22.5q-2.53,4.34-5.09,8.65a4.86,4.86,0,0,1-1.71,1.75,10.57,10.57,0,0,1-7.42,1.11c-2.06-.33-2.39-1.07-1.38-2.87,1.46-2.58,3-5.1,4.54-7.65.48-.8.86-1.69,1.85-2,.17-.06.35-.19.26-.42s-.31-.17-.49-.18H63.21c-.49,0-1,0-1.47,0-.71.05-1.89-.43-1.44,1.15,0,.15-.19.39-.31.58-.85,1.42-1.74,2.82-2.57,4.25a46.81,46.81,0,0,0-3.31,5.75C53.23,22.53,53.81,23.68,56.07,24.34Z"/><path d="M189.39,6.61A19.72,19.72,0,0,0,176.78,9a15.49,15.49,0,0,0-7.52,9c-1.48,4.75.75,8.37,5.64,9.15a20.15,20.15,0,0,0,5.94,0c6.47-1.15,11.48-4.29,14.2-10.51C197.29,11.55,194.91,7.33,189.39,6.61Zm2.73,8.56A14.39,14.39,0,0,1,179.5,26a8.63,8.63,0,0,1-3.23-.37c-3.14-1-4.48-3.62-3.64-7.17,1.4-6,7.25-10.59,13-10.6a8,8,0,0,1,4.11.78C192,9.82,192.83,12.26,192.12,15.17Z"/><path d="M147,25.22a4,4,0,0,1-1.83,2.06c-.36.18-.88.42-.58.9s.75.1,1.09-.07c2.17-1.05,4.42-1.89,6.67-2.74.47-.17,1.36-.26,1.08-1s-.92,0-1.38.06-1,.39-1.39,0,0-.86.1-1.26c1.59-4.34,3.23-8.66,5.11-12.89A5.15,5.15,0,0,1,156.66,9a3.48,3.48,0,0,1,3.81-.85c1.18.6,1.6,1.79,1.07,3.42a8.28,8.28,0,0,1-5.29,5.32c-1.22.47-1.4.84-.71,1.9A48.66,48.66,0,0,0,161.28,26a3.78,3.78,0,0,0,4.14,1c.31-.1.72-.13.75-.55s-.32-.49-.56-.65a19.61,19.61,0,0,1-6.22-7.45c-.67-1.24-.61-1.38.67-2.09a12.16,12.16,0,0,0,3.81-3.13c1.11-1.44,1.95-3.07,1.13-4.9s-2.55-1.76-4.18-1.85h-.11a29.59,29.59,0,0,0-10.27,2.37,1.87,1.87,0,0,0-.39.22c-.22.16-.41.38-.29.67s.43.26.68.18c.47-.14.92-.32,1.38-.48s.67-.32,1,0,0,.58-.05.85C150.91,15.23,149.07,20.28,147,25.22Z"/><path d="M126.73,27.7a40.7,40.7,0,0,1,5.37-1.27c.57-.1,1.6-.06,1.45-.84-.12-.62-1-.18-1.58-.1-1.37.19-1.71-.14-1.26-1.45,1.65-4.79,3.51-9.51,5.19-14.29.83-2.36,5.38-2.38,6.48-.81a3.16,3.16,0,0,1,.63,2.22,8,8,0,0,1-7.56,7c-.45,0-.91,0-1.35.06a.66.66,0,0,0-.66.65c0,.48.38.49.72.51s.67,0,1,0a12.84,12.84,0,0,0,9.13-4,8.25,8.25,0,0,0,1.94-3.52c.8-2.81-.83-4.8-4.13-5.19-4-.48-7.75.55-11.45,1.88-.34.12-.84.27-.71.73s.63.21,1,.16.65-.2,1-.28c1.14-.29,1.36-.1,1,1-1.7,5-3.45,10.09-5.46,15a3.79,3.79,0,0,1-1.15,1.78c-.26.19-.65.4-.38.8S126.45,27.79,126.73,27.7Z"/></svg>