<svg id="Layer_1" fill="currentColor" data-name="Layer 1" xmlns="http://www.w3.org/2000/svg" viewBox="0 0 217.69 43.54"><path d="M90.71,6.74c.55.11,1.11.16,1.66.32A5.79,5.79,0,0,1,96,9.87a6.05,6.05,0,0,1,.66,2.28,7,7,0,0,1-.52,3.52,5.54,5.54,0,0,1-3,2.88c-.36.16-.36.15-.14.46L97,24.38l.07.09c0,.06.12.12.08.19s-.13.05-.2.05H94.54a.48.48,0,0,1-.44-.23L90.38,19.4a.4.4,0,0,0-.35-.21l-4.49,0c-.33,0-.33,0-.33.33v4.83c0,.34,0,.34-.34.34H83.11c-.32,0-.32,0-.32-.32V6.74ZM85.2,13c0,1.18,0,2.36,0,3.54,0,.25.07.32.31.32,1.39,0,2.77,0,4.16,0a7.21,7.21,0,0,0,2.21-.32A3.27,3.27,0,0,0,94,14.73a4.36,4.36,0,0,0,.3-2.57,3.09,3.09,0,0,0-1.86-2.5,6.26,6.26,0,0,0-2.7-.53c-1.39,0-2.79,0-4.18,0-.24,0-.31.07-.31.31C85.21,10.61,85.2,11.78,85.2,13Z"/><path d="M109.51,6.74c.35.77.7,1.55,1.06,2.33q2.94,6.38,5.91,12.74c.4.88.81,1.75,1.21,2.63.11.24.09.27-.18.27h-2.1a.36.36,0,0,1-.37-.24c-.66-1.45-1.33-2.88-2-4.33-.1-.21-.19-.22-.38-.12l-3.76,1.88a.51.51,0,0,1-.52,0L104.6,20c-.19-.09-.26-.05-.34.13-.65,1.44-1.31,2.87-2,4.31a.37.37,0,0,1-.39.27H99.79c-.28,0-.3,0-.17-.28.44-1,.89-1.95,1.33-2.92q1.92-4.19,3.83-8.36l2.94-6.41Zm-.9,3.82c-.1.24-.18.41-.26.59-.95,2.09-1.91,4.18-2.86,6.28-.1.22-.06.32.16.42.93.45,1.86.92,2.79,1.39a.43.43,0,0,0,.4,0l2.79-1.39c.28-.14.28-.15.14-.44l-2.46-5.35Z"/><path d="M134.49,6.74a4,4,0,0,1-.65.76c-2.19,2.38-4.38,4.74-6.58,7.11-.32.34-.32.35,0,.72l7,8.65.44.55c.08.11.1.18-.08.18h-2.76c-.16,0-.24-.11-.32-.22l-2.25-2.77L125.45,17c-.13-.15-.21-.17-.36,0-.73.8-1.47,1.6-2.21,2.39a.53.53,0,0,0-.13.2.59.59,0,0,0,0,.23v4.61c0,.34,0,.34-.35.34h-1.84c-.22,0-.32-.06-.3-.29s0-.4,0-.6V7.07c0-.11,0-.22,0-.34h2.47c0,.13,0,.25,0,.37v8.56a.44.44,0,0,0,0,.29l.16-.19,1.52-1.65,5.46-5.92c.44-.48.91-.94,1.31-1.46Z"/><path d="M82.74,33.78a3.3,3.3,0,0,1,.64-1.12,2.59,2.59,0,0,1,3.44-.19c.24.2.06.31,0,.46s-.2.13-.34,0a1.92,1.92,0,0,0-3,.68,1.74,1.74,0,0,0,.25,1.84,1.86,1.86,0,0,0,1.71.7,1.79,1.79,0,0,0,1-.43c.24-.21.31,0,.43.14s0,.23-.07.31a2.5,2.5,0,0,1-4-1l-.1-.27Z"/><path d="M115.78,33.09,115,34.52c-.25.51-.51,1-.77,1.53-.06.12-.11.24-.29.25s-.25-.11-.32-.25l-1.47-2.9L112.1,33c0,.13,0,.21,0,.28,0,1.07,0,2.14,0,3.21,0,.21-.06.31-.29.31s-.31-.07-.31-.31V32.23c0-.23.09-.29.31-.31a.58.58,0,0,1,.65.39c.45.92.92,1.81,1.38,2.72l.12.23c.11,0,.12-.14.16-.22.49-1,1-1.92,1.46-2.88a.71.71,0,0,1,.78-.2.22.22,0,0,1,.07.2v4.4c0,.23-.15.21-.31.22s-.29,0-.29-.25c0-1.05,0-2.09,0-3.14V33.1Z"/><path d="M97.13,34.37c0-.72,0-1.44,0-2.15,0-.21.07-.29.28-.28.68,0,1.37-.05,2,0a1.52,1.52,0,0,1,1.4,1.19,1.65,1.65,0,0,1-.85,1.92c-.13.07-.13.13-.05.24.29.4.57.81.85,1.22,0,.06.12.12.08.19s-.13,0-.2,0a.56.56,0,0,1-.64-.33c-.19-.34-.43-.65-.63-1a.36.36,0,0,0-.37-.21H98c-.2,0-.29,0-.28.27s0,.68,0,1-.15.22-.31.22-.3,0-.3-.23c0-.73,0-1.46,0-2.19Zm.6-.78v.89c0,.1,0,.2.15.2a7.7,7.7,0,0,0,1.59-.07.92.92,0,0,0,.81-.88,1,1,0,0,0-1.08-1.19c-.42,0-.83,0-1.25,0-.16,0-.22.06-.22.21S97.73,33.31,97.73,33.59Z"/><path d="M90.31,34.36c0-.71,0-1.42,0-2.13,0-.21.06-.3.29-.3.92,0,1.83,0,2.75,0,.25,0,.27.12.28.32s-.06.29-.28.29H91.22c-.25,0-.33.08-.32.32a6.32,6.32,0,0,1,0,.87c0,.23.07.31.3.31.62,0,1.23,0,1.84,0,.1,0,.23,0,.27.1a.64.64,0,0,1,0,.43c0,.1-.16.07-.24.07H91.17c-.2,0-.27.06-.27.26s0,.69,0,1,.06.28.28.28c.73,0,1.46,0,2.2,0a.32.32,0,0,1,.31.49c0,.09-.11.09-.18.09h-3c-.18,0-.21-.1-.21-.25C90.31,35.8,90.31,35.08,90.31,34.36Z"/><path d="M108,36.78c-.21,0-.33-.06-.41-.29s-.21-.47-.31-.7a.3.3,0,0,0-.31-.22h-2.13a.28.28,0,0,0-.29.2c-.12.27-.24.54-.37.81a.58.58,0,0,1-.65.18c-.09-.07,0-.14,0-.21l.7-1.59c.41-.91.81-1.81,1.22-2.71a.53.53,0,0,1,.7-.3c.12.05.14.17.19.26.6,1.33,1.2,2.66,1.79,4l.15.33c.1.23.09.25-.16.25Zm-2.09-4.1c-.33.75-.63,1.44-.94,2.13-.06.15,0,.17.14.17h1.61c.15,0,.2,0,.14-.19Z"/><path d="M133.19,36.79a2.52,2.52,0,0,1-1.67-.56.45.45,0,0,1,.06-.65c.1,0,.15,0,.21.08a2.29,2.29,0,0,0,1.59.53A1.43,1.43,0,0,0,134,36,.62.62,0,0,0,134,35a2.92,2.92,0,0,0-.93-.39,4.24,4.24,0,0,1-.84-.31,1.16,1.16,0,0,1-.65-1.08,1.12,1.12,0,0,1,.7-1,2.68,2.68,0,0,1,2.39.13c.28.15.05.34,0,.5s-.18.13-.31.06a2.17,2.17,0,0,0-1.54-.24c-.27.07-.5.18-.55.49a.68.68,0,0,0,.42.68,5.4,5.4,0,0,0,.88.31,2.78,2.78,0,0,1,1,.49,1.28,1.28,0,0,1-.08,1.87A2,2,0,0,1,133.19,36.79Z"/><path d="M126.85,36.79a2.44,2.44,0,0,1-1.64-4.28,2.5,2.5,0,0,1,3-.24l.23.14c.29.21.29.22.08.5s-.19.17-.36,0A1.85,1.85,0,0,0,126,32.7a1.75,1.75,0,0,0-1,1.68,1.91,1.91,0,0,0,2.87,1.55,1.51,1.51,0,0,0,.26-.18c.15-.13.25-.12.37,0s.21.25,0,.44A2.43,2.43,0,0,1,126.85,36.79Z"/><path d="M120.42,34.34c0-.71,0-1.42,0-2.13,0-.23.1-.28.31-.28s.3,0,.3.28q0,2.15,0,4.29c0,.23-.09.29-.3.29s-.31,0-.31-.29C120.42,35.78,120.42,35.06,120.42,34.34Z"/></svg>