<svg id="Layer_1" fill="currentColor" data-name="Layer 1" xmlns="http://www.w3.org/2000/svg" viewBox="0 0 217.69 43.54"><path d="M150.05,9.27a17.35,17.35,0,0,1,7.45,1.61,10.71,10.71,0,0,1,5.44,7.53,14,14,0,0,1-1.14,9.83,10,10,0,0,1-6.14,5.19,20,20,0,0,1-11,.12,10.18,10.18,0,0,1-6.94-6.12,14,14,0,0,1,0-11.32c1.7-4,4.94-6,9.18-6.57A20.15,20.15,0,0,1,150.05,9.27Zm-6.79,12.56a15.62,15.62,0,0,0,.35,3.73c.61,2.84,2.07,4.84,5.09,5.44a6.11,6.11,0,0,0,7-3.66,16,16,0,0,0,.24-10.48,5.7,5.7,0,0,0-3.53-3.94c-2.91-1.11-6.8-.18-8.16,3.13A13.92,13.92,0,0,0,143.26,21.83Z"/><path d="M107.86,21.73a13.18,13.18,0,0,1-1.29,6.1,10.7,10.7,0,0,1-8,6,20.47,20.47,0,0,1-9.34-.28,10.29,10.29,0,0,1-7.42-7.14,13.89,13.89,0,0,1,1-11.47A9.86,9.86,0,0,1,89,10.06a19.16,19.16,0,0,1,11.39.18c4.36,1.46,6.48,4.77,7.28,9.09A8.81,8.81,0,0,1,107.86,21.73Zm-6.67-.29a11.65,11.65,0,0,0-.2-2.24,15.41,15.41,0,0,0-.55-2.42,5.94,5.94,0,0,0-6.17-4.28,5.88,5.88,0,0,0-5.79,4.38,17.08,17.08,0,0,0-.27,8.89c.64,2.83,2.2,4.75,5.18,5.24a6.12,6.12,0,0,0,6.84-3.67,16.68,16.68,0,0,0,1-5.9Z"/><path d="M66.89,10.31H78.32c1.05,0,1.08,0,1.08,1.06,0,2.34,0,4.69,0,7,0,.72-.21,1.05-1,1a9.9,9.9,0,0,0-1.54,0c-.65,0-1-.21-.91-.88A5.48,5.48,0,0,0,75.54,16a4,4,0,0,0-4-2.58c-2,0-1.67-.24-1.68,1.64,0,4.54,0,9.09,0,13.63,0,1.38.31,1.69,1.67,1.69h2.27c.5,0,.76.19.76.74,0,2.75.33,2.2-2.09,2.22-4.1,0-8.2,0-12.31,0-1,0-1,0-1-1,0-2.23-.32-2,2-2,.41,0,.83,0,1.24,0,1.06,0,1.47-.4,1.47-1.46,0-2.2,0-4.4,0-6.6V14.46c0-1,0-1-1.07-1a5.85,5.85,0,0,0-1.67.11,4.47,4.47,0,0,0-3.37,4.2c0,.22,0,.44,0,.66,0,.94-.07,1-1,1-.56,0-1.12,0-1.69,0s-.66-.2-.66-.66c0-2.56,0-5.13,0-7.69,0-.68.4-.72.91-.72Z"/><path d="M122.37,10.31H133.8c1,0,1,0,1,1,0,2.39,0,4.78,0,7.18,0,.62-.19.9-.84.86a13,13,0,0,0-1.53,0c-.67,0-1-.18-1-.91a6,6,0,0,0-1-3.39c-1.21-1.67-3-1.77-4.8-1.66a.4.4,0,0,0-.15,0,.37.37,0,0,0-.2.2.26.26,0,0,0,0,.15c0,.19,0,.39,0,.58V28.61c0,1.48.31,1.78,1.82,1.78.63,0,1.27,0,1.9,0s1.07.19,1,.95a8.3,8.3,0,0,0,0,1.32c0,.48-.13.72-.66.72q-7,0-14.05,0c-.48,0-.67-.2-.65-.66s0-1.07,0-1.61.22-.71.7-.7h2.56c1,0,1.42-.39,1.42-1.43,0-4.95,0-9.91,0-14.86,0-.51-.19-.71-.69-.68a17.15,17.15,0,0,0-1.9.08,4.1,4.1,0,0,0-3.37,3.35,6.63,6.63,0,0,0-.27,1.88c0,.41-.15.65-.59.65h-2.12c-.42,0-.61-.22-.61-.65q0-3.87,0-7.76a.56.56,0,0,1,.62-.64h.73Z"/></svg>